# 3ds Max Wavefront OBJ Exporter v0.97b - (c)2007 guruware
# File Created: 26.05.2019 22:10:20

mtllib bullet.mtl

#
# object pCylinder1
#

v  0.1170 -0.1170 0.1980
v  0.1164 -0.1164 -0.0607
v  0.1520 -0.0630 -0.0607
v  0.1528 -0.0633 0.1980
v  0.0633 -0.1528 0.1980
v  0.0630 -0.1520 -0.0607
v  0.0000 -0.1654 0.1980
v  0.0000 -0.1646 -0.0607
v  -0.0633 -0.1528 0.1980
v  -0.0630 -0.1520 -0.0607
v  -0.1170 -0.1170 0.1980
v  -0.1164 -0.1164 -0.0607
v  -0.1528 -0.0633 0.1980
v  -0.1520 -0.0630 -0.0607
v  -0.1654 -0.0000 0.1980
v  -0.1646 -0.0000 -0.0607
v  -0.1528 0.0633 0.1980
v  -0.1520 0.0630 -0.0607
v  -0.1170 0.1170 0.1980
v  -0.1164 0.1164 -0.0607
v  -0.0633 0.1528 0.1980
v  -0.0630 0.1520 -0.0607
v  0.0000 0.1654 0.1980
v  0.0000 0.1646 -0.0607
v  0.0633 0.1528 0.1980
v  0.0630 0.1520 -0.0607
v  0.1170 0.1170 0.1980
v  0.1164 0.1164 -0.0607
v  0.1528 0.0633 0.1980
v  0.1520 0.0630 -0.0607
v  0.1654 0.0000 0.1980
v  0.1646 0.0000 -0.0607
v  0.0000 0.0000 0.1980
v  0.0788 -0.0326 -0.1815
v  0.0603 -0.0603 -0.1815
v  0.0000 0.0000 -0.1980
v  0.0326 -0.0788 -0.1815
v  0.0000 -0.0853 -0.1815
v  -0.0326 -0.0788 -0.1815
v  -0.0603 -0.0603 -0.1815
v  -0.0788 -0.0326 -0.1815
v  -0.0853 0.0000 -0.1815
v  -0.0788 0.0326 -0.1815
v  -0.0603 0.0603 -0.1815
v  -0.0326 0.0788 -0.1815
v  0.0000 0.0853 -0.1815
v  0.0326 0.0788 -0.1815
v  0.0603 0.0603 -0.1815
v  0.0788 0.0326 -0.1815
v  0.0853 0.0000 -0.1815
v  0.0900 -0.0900 -0.1382
v  0.1175 -0.0487 -0.1382
v  0.0487 -0.1175 -0.1382
v  0.0000 -0.1272 -0.1382
v  -0.0487 -0.1175 -0.1382
v  -0.0900 -0.0900 -0.1382
v  -0.1175 -0.0487 -0.1382
v  -0.1272 0.0000 -0.1382
v  -0.1175 0.0487 -0.1382
v  -0.0900 0.0900 -0.1382
v  -0.0487 0.1175 -0.1382
v  0.0000 0.1272 -0.1382
v  0.0487 0.1175 -0.1382
v  0.0900 0.0900 -0.1382
v  0.1175 0.0487 -0.1382
v  0.1272 0.0000 -0.1382
# 66 vertices

vn 0.7071 -0.7071 -0.0033
vn 0.9239 -0.3827 -0.0033
vn 0.3827 -0.9239 -0.0033
vn 0.0000 -1.0000 -0.0033
vn -0.3827 -0.9239 -0.0033
vn -0.7071 -0.7071 -0.0033
vn -0.9239 -0.3827 -0.0033
vn -1.0000 -0.0000 -0.0033
vn -0.9239 0.3827 -0.0033
vn -0.7071 0.7071 -0.0033
vn -0.3827 0.9239 -0.0033
vn 0.0000 1.0000 -0.0033
vn 0.3827 0.9239 -0.0033
vn 0.7071 0.7071 -0.0033
vn 0.9239 0.3827 -0.0033
vn 1.0000 -0.0000 -0.0033
vn 0.0000 0.0000 1.0000
vn 0.1754 -0.0726 -0.9818
vn 0.1342 -0.1342 -0.9818
vn 0.0000 -0.0000 -1.0000
vn 0.0726 -0.1754 -0.9818
vn 0.0000 -0.1898 -0.9818
vn -0.0726 -0.1754 -0.9818
vn -0.1342 -0.1342 -0.9818
vn -0.1754 -0.0726 -0.9818
vn -0.1898 -0.0000 -0.9818
vn -0.1754 0.0726 -0.9818
vn -0.1342 0.1342 -0.9818
vn -0.0726 0.1754 -0.9818
vn 0.0000 0.1898 -0.9818
vn 0.0726 0.1754 -0.9818
vn 0.1342 0.1342 -0.9818
vn 0.1754 0.0726 -0.9818
vn 0.1898 0.0000 -0.9818
vn 0.7517 -0.5023 -0.4274
vn 0.5023 -0.7517 -0.4274
vn 0.1764 -0.8867 -0.4274
vn -0.1764 -0.8867 -0.4274
vn -0.5023 -0.7517 -0.4274
vn -0.7517 -0.5023 -0.4274
vn -0.8867 -0.1764 -0.4274
vn -0.8867 0.1764 -0.4274
vn -0.7517 0.5023 -0.4274
vn -0.5023 0.7517 -0.4274
vn -0.1764 0.8867 -0.4274
vn 0.1764 0.8867 -0.4274
vn 0.5023 0.7517 -0.4274
vn 0.7517 0.5023 -0.4274
vn 0.8867 0.1764 -0.4274
vn 0.8867 -0.1764 -0.4274
vn 0.6031 -0.4030 -0.6884
vn 0.4030 -0.6031 -0.6884
vn 0.1415 -0.7114 -0.6884
vn -0.1415 -0.7114 -0.6884
vn -0.4030 -0.6031 -0.6884
vn -0.6031 -0.4030 -0.6884
vn -0.7114 -0.1415 -0.6884
vn -0.7114 0.1415 -0.6884
vn -0.6031 0.4030 -0.6884
vn -0.4030 0.6031 -0.6884
vn -0.1415 0.7114 -0.6884
vn 0.1415 0.7114 -0.6884
vn 0.4030 0.6031 -0.6884
vn 0.6031 0.4030 -0.6884
vn 0.7114 0.1415 -0.6884
vn 0.7114 -0.1415 -0.6884
# 66 vertex normals

vt 0.7774 0.5141 0.0000
vt 0.7774 0.7562 0.0000
vt 0.7330 0.7562 0.0000
vt 0.7330 0.5141 0.0000
vt 0.8218 0.5141 0.0000
vt 0.8218 0.7562 0.0000
vt 0.8662 0.5141 0.0000
vt 0.8662 0.7562 0.0000
vt 0.2004 0.5141 0.0000
vt 0.2004 0.7562 0.0000
vt 0.1560 0.7562 0.0000
vt 0.1560 0.5141 0.0000
vt 0.2448 0.5141 0.0000
vt 0.2448 0.7562 0.0000
vt 0.2891 0.5141 0.0000
vt 0.2891 0.7562 0.0000
vt 0.3335 0.5141 0.0000
vt 0.3335 0.7562 0.0000
vt 0.3779 0.5141 0.0000
vt 0.3779 0.7562 0.0000
vt 0.4223 0.5141 0.0000
vt 0.4223 0.7562 0.0000
vt 0.4667 0.5141 0.0000
vt 0.4667 0.7562 0.0000
vt 0.5111 0.5141 0.0000
vt 0.5111 0.7562 0.0000
vt 0.5555 0.5141 0.0000
vt 0.5555 0.7562 0.0000
vt 0.5998 0.5141 0.0000
vt 0.5998 0.7562 0.0000
vt 0.6442 0.5141 0.0000
vt 0.6442 0.7562 0.0000
vt 0.6886 0.5141 0.0000
vt 0.6886 0.7562 0.0000
vt 0.6094 0.4051 0.0000
vt 0.5709 0.3475 0.0000
vt 0.7349 0.2796 0.0000
vt 0.6670 0.4436 0.0000
vt 0.7349 0.4571 0.0000
vt 0.8029 0.4436 0.0000
vt 0.8605 0.4051 0.0000
vt 0.8989 0.3475 0.0000
vt 0.9125 0.2796 0.0000
vt 0.8989 0.2116 0.0000
vt 0.8605 0.1540 0.0000
vt 0.8029 0.1155 0.0000
vt 0.7349 0.1020 0.0000
vt 0.6670 0.1155 0.0000
vt 0.6094 0.1540 0.0000
vt 0.5709 0.2116 0.0000
vt 0.5574 0.2796 0.0000
vt 0.5087 0.3476 0.0000
vt 0.4689 0.4071 0.0000
vt 0.3393 0.2774 0.0000
vt 0.4094 0.4468 0.0000
vt 0.3393 0.4608 0.0000
vt 0.2691 0.4468 0.0000
vt 0.2096 0.4071 0.0000
vt 0.1698 0.3476 0.0000
vt 0.1559 0.2774 0.0000
vt 0.1698 0.2072 0.0000
vt 0.2096 0.1477 0.0000
vt 0.2691 0.1080 0.0000
vt 0.3393 0.0940 0.0000
vt 0.4094 0.1080 0.0000
vt 0.4689 0.1477 0.0000
vt 0.5087 0.2072 0.0000
vt 0.5226 0.2774 0.0000
vt 0.7774 0.8287 0.0000
vt 0.7330 0.8287 0.0000
vt 0.8218 0.8287 0.0000
vt 0.8662 0.8287 0.0000
vt 0.2004 0.8287 0.0000
vt 0.1560 0.8287 0.0000
vt 0.2448 0.8287 0.0000
vt 0.2891 0.8287 0.0000
vt 0.3335 0.8287 0.0000
vt 0.3779 0.8287 0.0000
vt 0.4223 0.8287 0.0000
vt 0.4667 0.8287 0.0000
vt 0.5111 0.8287 0.0000
vt 0.5555 0.8287 0.0000
vt 0.5998 0.8287 0.0000
vt 0.6442 0.8287 0.0000
vt 0.6886 0.8287 0.0000
vt 0.7774 0.8692 0.0000
vt 0.7330 0.8692 0.0000
vt 0.8218 0.8692 0.0000
vt 0.8662 0.8692 0.0000
vt 0.2004 0.8692 0.0000
vt 0.1560 0.8692 0.0000
vt 0.2448 0.8692 0.0000
vt 0.2891 0.8692 0.0000
vt 0.3335 0.8692 0.0000
vt 0.3779 0.8692 0.0000
vt 0.4223 0.8692 0.0000
vt 0.4667 0.8692 0.0000
vt 0.5111 0.8692 0.0000
vt 0.5555 0.8692 0.0000
vt 0.5998 0.8692 0.0000
vt 0.6442 0.8692 0.0000
vt 0.6886 0.8692 0.0000
# 102 texture coords

g pCylinder1
usemtl BULLET
f 1/1/1 2/2/1 3/3/2 
f 3/3/2 4/4/2 1/1/1 
f 5/5/3 6/6/3 2/2/1 
f 2/2/1 1/1/1 5/5/3 
f 7/7/4 8/8/4 6/6/3 
f 6/6/3 5/5/3 7/7/4 
f 9/9/5 10/10/5 8/11/4 
f 8/11/4 7/12/4 9/9/5 
f 11/13/6 12/14/6 10/10/5 
f 10/10/5 9/9/5 11/13/6 
f 13/15/7 14/16/7 12/14/6 
f 12/14/6 11/13/6 13/15/7 
f 15/17/8 16/18/8 14/16/7 
f 14/16/7 13/15/7 15/17/8 
f 17/19/9 18/20/9 16/18/8 
f 16/18/8 15/17/8 17/19/9 
f 19/21/10 20/22/10 18/20/9 
f 18/20/9 17/19/9 19/21/10 
f 21/23/11 22/24/11 20/22/10 
f 20/22/10 19/21/10 21/23/11 
f 23/25/12 24/26/12 22/24/11 
f 22/24/11 21/23/11 23/25/12 
f 25/27/13 26/28/13 24/26/12 
f 24/26/12 23/25/12 25/27/13 
f 27/29/14 28/30/14 26/28/13 
f 26/28/13 25/27/13 27/29/14 
f 29/31/15 30/32/15 28/30/14 
f 28/30/14 27/29/14 29/31/15 
f 31/33/16 32/34/16 30/32/15 
f 30/32/15 29/31/15 31/33/16 
f 4/4/2 3/3/2 32/34/16 
f 32/34/16 31/33/16 4/4/2 
f 1/35/17 4/36/17 33/37/17 
f 5/38/17 1/35/17 33/37/17 
f 7/39/17 5/38/17 33/37/17 
f 9/40/17 7/39/17 33/37/17 
f 11/41/17 9/40/17 33/37/17 
f 13/42/17 11/41/17 33/37/17 
f 15/43/17 13/42/17 33/37/17 
f 17/44/17 15/43/17 33/37/17 
f 19/45/17 17/44/17 33/37/17 
f 21/46/17 19/45/17 33/37/17 
f 23/47/17 21/46/17 33/37/17 
f 25/48/17 23/47/17 33/37/17 
f 27/49/17 25/48/17 33/37/17 
f 29/50/17 27/49/17 33/37/17 
f 31/51/17 29/50/17 33/37/17 
f 4/36/17 31/51/17 33/37/17 
f 34/52/18 35/53/19 36/54/20 
f 35/53/19 37/55/21 36/54/20 
f 37/55/21 38/56/22 36/54/20 
f 38/56/22 39/57/23 36/54/20 
f 39/57/23 40/58/24 36/54/20 
f 40/58/24 41/59/25 36/54/20 
f 41/59/25 42/60/26 36/54/20 
f 42/60/26 43/61/27 36/54/20 
f 43/61/27 44/62/28 36/54/20 
f 44/62/28 45/63/29 36/54/20 
f 45/63/29 46/64/30 36/54/20 
f 46/64/30 47/65/31 36/54/20 
f 47/65/31 48/66/32 36/54/20 
f 48/66/32 49/67/33 36/54/20 
f 49/67/33 50/68/34 36/54/20 
f 50/68/34 34/52/18 36/54/20 
f 2/2/35 51/69/35 52/70/35 
f 52/70/35 3/3/35 2/2/35 
f 6/6/36 53/71/36 51/69/36 
f 51/69/36 2/2/36 6/6/36 
f 8/8/37 54/72/37 53/71/37 
f 53/71/37 6/6/37 8/8/37 
f 10/10/38 55/73/38 54/74/38 
f 54/74/38 8/11/38 10/10/38 
f 12/14/39 56/75/39 55/73/39 
f 55/73/39 10/10/39 12/14/39 
f 14/16/40 57/76/40 56/75/40 
f 56/75/40 12/14/40 14/16/40 
f 16/18/41 58/77/41 57/76/41 
f 57/76/41 14/16/41 16/18/41 
f 18/20/42 59/78/42 58/77/42 
f 58/77/42 16/18/42 18/20/42 
f 20/22/43 60/79/43 59/78/43 
f 59/78/43 18/20/43 20/22/43 
f 22/24/44 61/80/44 60/79/44 
f 60/79/44 20/22/44 22/24/44 
f 24/26/45 62/81/45 61/80/45 
f 61/80/45 22/24/45 24/26/45 
f 26/28/46 63/82/46 62/81/46 
f 62/81/46 24/26/46 26/28/46 
f 28/30/47 64/83/47 63/82/47 
f 63/82/47 26/28/47 28/30/47 
f 30/32/48 65/84/48 64/83/48 
f 64/83/48 28/30/48 30/32/48 
f 32/34/49 66/85/49 65/84/49 
f 65/84/49 30/32/49 32/34/49 
f 3/3/50 52/70/50 66/85/50 
f 66/85/50 32/34/50 3/3/50 
f 51/69/51 35/86/51 34/87/51 
f 34/87/51 52/70/51 51/69/51 
f 53/71/52 37/88/52 35/86/52 
f 35/86/52 51/69/52 53/71/52 
f 54/72/53 38/89/53 37/88/53 
f 37/88/53 53/71/53 54/72/53 
f 55/73/54 39/90/54 38/91/54 
f 38/91/54 54/74/54 55/73/54 
f 56/75/55 40/92/55 39/90/55 
f 39/90/55 55/73/55 56/75/55 
f 57/76/56 41/93/56 40/92/56 
f 40/92/56 56/75/56 57/76/56 
f 58/77/57 42/94/57 41/93/57 
f 41/93/57 57/76/57 58/77/57 
f 59/78/58 43/95/58 42/94/58 
f 42/94/58 58/77/58 59/78/58 
f 60/79/59 44/96/59 43/95/59 
f 43/95/59 59/78/59 60/79/59 
f 61/80/60 45/97/60 44/96/60 
f 44/96/60 60/79/60 61/80/60 
f 62/81/61 46/98/61 45/97/61 
f 45/97/61 61/80/61 62/81/61 
f 63/82/62 47/99/62 46/98/62 
f 46/98/62 62/81/62 63/82/62 
f 64/83/63 48/100/63 47/99/63 
f 47/99/63 63/82/63 64/83/63 
f 65/84/64 49/101/64 48/100/64 
f 48/100/64 64/83/64 65/84/64 
f 66/85/65 50/102/65 49/101/65 
f 49/101/65 65/84/65 66/85/65 
f 52/70/66 34/87/66 50/102/66 
f 50/102/66 66/85/66 52/70/66 
# 128 faces

