# 3ds Max Wavefront OBJ Exporter v0.97b - (c)2007 guruware
# File Created: 26.05.2019 04:59:38

mtllib p_punta.mtl

#
# object B_P
#

v  -1.6046 1.3380 0.1429
v  -1.2970 1.8315 0.1429
v  -1.2970 1.8315 -0.1469
v  -1.6046 1.3380 -0.1469
v  -1.9842 0.0720 -0.1815
v  -1.9842 0.0720 0.1775
v  -1.9842 -1.5142 -0.1815
v  -1.9842 -1.5142 0.1775
v  1.9546 -1.5142 -0.1815
v  1.9546 0.0720 -0.1815
v  1.9546 0.0720 0.1775
v  1.9546 -1.5142 0.1775
v  1.5749 1.3380 -0.1468
v  1.5749 1.3380 0.1429
v  1.2674 1.8315 -0.1468
v  1.2674 1.8315 0.1429
v  -0.9498 2.1082 0.1429
v  -0.9498 2.1082 -0.1468
v  0.9202 2.1082 -0.1468
v  0.9202 2.1082 0.1429
v  1.2830 1.3380 1.2091
v  1.5930 0.0720 1.4983
v  -1.6226 0.0720 1.4983
v  -1.3126 1.3380 1.2091
v  -1.3126 1.3380 -1.2130
v  -1.6226 0.0720 -1.5023
v  1.5930 0.0720 -1.5023
v  1.2830 1.3380 -1.2130
v  -1.6226 -1.5142 -1.5023
v  -1.6226 -1.5142 1.4983
v  1.5930 -1.5142 1.4983
v  1.5930 -1.5142 -1.5023
v  -1.0677 1.8315 0.9805
v  -1.0677 1.8315 -0.9845
v  1.0381 1.8315 0.9805
v  1.0381 1.8315 -0.9845
v  -0.7911 2.1082 0.7224
v  -0.7911 2.1082 -0.7264
v  0.7615 2.1082 0.7224
v  0.7615 2.1082 -0.7264
v  -0.1700 1.3380 -1.4855
v  -0.1700 1.8315 -1.1985
v  0.1404 1.8315 -1.1985
v  0.1404 1.3380 -1.4854
v  0.1775 0.0720 -1.8398
v  -0.2071 0.0720 -1.8398
v  0.3465 -1.5142 -1.8398
v  -0.3761 -1.5142 -1.8398
v  0.3465 -2.4830 -0.6410
v  0.3465 -2.4830 -0.0686
v  -0.3761 -2.4830 -0.0686
v  -0.3761 -2.4830 -0.6410
v  -0.3761 -2.4830 0.6370
v  -0.3761 -2.4830 0.0646
v  0.3465 -2.4830 0.0646
v  0.3465 -2.4830 0.6370
v  0.3465 -1.5142 1.8358
v  0.1775 0.0720 1.8358
v  -0.2071 0.0720 1.8358
v  -0.3761 -1.5142 1.8358
v  0.1404 1.3380 1.4815
v  -0.1700 1.3380 1.4815
v  0.1404 1.8315 1.1945
v  -0.1700 1.8315 1.1945
v  0.1404 2.1082 0.8705
v  -0.1700 2.1082 0.8705
v  -0.1700 2.1082 -0.8745
v  0.1404 2.1082 -0.8745
v  0.1404 2.4435 0.1429
v  -0.1700 2.4435 0.1429
v  -0.1700 2.4435 -0.1469
v  0.1404 2.4435 -0.1468
v  -0.3761 -1.5142 -0.1936
v  -0.3761 -1.5142 0.1896
v  0.3465 -1.5142 -0.1936
v  0.3465 -1.5142 0.1896
# 76 vertices

vn -0.9353 0.3083 0.1739
vn -0.8110 0.5667 0.1456
vn -0.8110 0.5667 -0.1456
vn -0.9353 0.3083 -0.1739
vn -0.9771 0.1078 -0.1833
vn -0.9771 0.1078 0.1833
vn -0.9828 0.0000 -0.1844
vn -0.9828 0.0000 0.1844
vn 0.9828 0.0000 -0.1844
vn 0.9771 0.1078 -0.1833
vn 0.9771 0.1078 0.1833
vn 0.9828 0.0000 0.1844
vn 0.9353 0.3083 -0.1739
vn 0.9353 0.3083 0.1739
vn 0.8110 0.5667 -0.1456
vn 0.8110 0.5667 0.1456
vn -0.4958 0.8555 0.1492
vn -0.4958 0.8555 -0.1492
vn 0.4958 0.8555 -0.1492
vn 0.4958 0.8555 0.1492
vn 0.9290 0.2962 0.2217
vn 0.9677 0.1017 0.2309
vn -0.9677 0.1017 0.2309
vn -0.9290 0.2962 0.2217
vn -0.9290 0.2962 -0.2217
vn -0.9677 0.1017 -0.2309
vn 0.9677 0.1017 -0.2309
vn 0.9290 0.2962 -0.2217
vn -0.9727 0.0000 -0.2321
vn -0.9727 0.0000 0.2321
vn 0.9727 0.0000 0.2321
vn 0.9727 0.0000 -0.2321
vn -0.8210 0.5362 0.1959
vn -0.8210 0.5362 -0.1959
vn 0.8210 0.5362 0.1959
vn 0.8210 0.5362 -0.1959
vn -0.3826 0.8542 0.3520
vn -0.3826 0.8542 -0.3520
vn 0.3826 0.8542 0.3520
vn 0.3826 0.8542 -0.3520
vn -0.1974 0.3255 -0.9247
vn -0.1630 0.5896 -0.7911
vn 0.1630 0.5896 -0.7911
vn 0.1974 0.3255 -0.9247
vn 0.1993 0.1182 -0.9728
vn -0.1993 0.1182 -0.9728
vn 0.2077 0.0096 -0.9782
vn -0.2077 0.0096 -0.9782
vn 0.0000 -1.0000 -0.0000
vn 0.2077 0.0096 0.9782
vn 0.1993 0.1182 0.9728
vn -0.1993 0.1182 0.9728
vn -0.2077 0.0096 0.9782
vn 0.1974 0.3255 0.9247
vn -0.1974 0.3255 0.9247
vn 0.1630 0.5896 0.7911
vn -0.1630 0.5896 0.7911
vn 0.1610 0.8666 0.4723
vn -0.1610 0.8666 0.4723
vn -0.1610 0.8666 -0.4723
vn 0.1610 0.8666 -0.4723
vn 0.2364 0.9462 0.2208
vn -0.2364 0.9462 0.2208
vn -0.2364 0.9462 -0.2208
vn 0.2364 0.9462 -0.2208
vn -0.2505 0.3148 0.9155
vn -0.2711 0.1203 0.9550
vn -0.2505 0.3148 -0.9155
vn -0.2711 0.1203 -0.9550
vn -0.2794 0.0130 0.9601
vn -0.2794 0.0130 -0.9601
vn 0.2505 0.3148 -0.9155
vn 0.2711 0.1203 -0.9550
vn 0.2794 0.0130 -0.9601
vn 0.2794 0.0130 0.9601
vn 0.2711 0.1203 0.9550
vn 0.2505 0.3148 0.9155
vn -0.2179 0.5641 0.7965
vn -0.2179 0.5641 -0.7965
vn 0.2179 0.5641 0.7965
vn 0.2179 0.5641 -0.7965
vn -0.0000 -1.0000 -0.0000
vn -0.0000 -1.0000 0.0000
vn 0.0000 -1.0000 0.0000
vn 0.0000 -0.7777 -0.6286
vn 1.0000 -0.0000 0.0000
vn -1.0000 0.0000 -0.0000
vn -0.0000 -0.7777 0.6286
vn 1.0000 0.0000 0.0000
# 89 vertex normals

vt 0.6283 0.6570 0.0000
vt 0.6283 0.6902 0.0000
vt 0.6013 0.6902 0.0000
vt 0.6013 0.6570 0.0000
vt 0.6013 0.5717 0.0000
vt 0.6283 0.5717 0.0000
vt 0.6013 0.4648 0.0000
vt 0.6283 0.4648 0.0000
vt 0.1776 0.4648 0.0000
vt 0.1776 0.5717 0.0000
vt 0.1453 0.5717 0.0000
vt 0.1453 0.4648 0.0000
vt 0.1776 0.6570 0.0000
vt 0.1453 0.6570 0.0000
vt 0.1776 0.6902 0.0000
vt 0.1453 0.6902 0.0000
vt 0.6283 0.7185 0.0000
vt 0.6013 0.7185 0.0000
vt 0.6013 0.9057 0.0000
vt 0.6013 0.8774 0.0000
vt 0.6283 0.8774 0.0000
vt 0.6283 0.9057 0.0000
vt 0.0514 0.6570 0.0000
vt 0.0514 0.5717 0.0000
vt 0.7275 0.5717 0.0000
vt 0.7275 0.6570 0.0000
vt 0.5021 0.6570 0.0000
vt 0.5021 0.5717 0.0000
vt 0.2768 0.5717 0.0000
vt 0.2768 0.6570 0.0000
vt 0.5021 0.4648 0.0000
vt 0.7275 0.4648 0.0000
vt 0.0514 0.4648 0.0000
vt 0.2768 0.4648 0.0000
vt 0.7275 0.6902 0.0000
vt 0.5021 0.6902 0.0000
vt 0.0514 0.6902 0.0000
vt 0.2768 0.6902 0.0000
vt 0.6893 0.7185 0.0000
vt 0.5304 0.7185 0.0000
vt 0.6893 0.8774 0.0000
vt 0.7275 0.9057 0.0000
vt 0.5021 0.9057 0.0000
vt 0.5304 0.8774 0.0000
vt 0.4137 0.6570 0.0000
vt 0.4137 0.6902 0.0000
vt 0.3796 0.6902 0.0000
vt 0.3796 0.6570 0.0000
vt 0.3796 0.5717 0.0000
vt 0.4137 0.5717 0.0000
vt 0.3796 0.4648 0.0000
vt 0.4137 0.4648 0.0000
vt 0.5021 0.2567 0.0000
vt 0.6013 0.2567 0.0000
vt 0.6013 0.3287 0.0000
vt 0.5021 0.3287 0.0000
vt 0.7275 0.3287 0.0000
vt 0.6283 0.3287 0.0000
vt 0.6283 0.2567 0.0000
vt 0.7275 0.2567 0.0000
vt 0.8573 0.4648 0.0000
vt 0.8573 0.5717 0.0000
vt 0.8231 0.5717 0.0000
vt 0.8231 0.4648 0.0000
vt 0.8573 0.6570 0.0000
vt 0.8231 0.6570 0.0000
vt 0.8573 0.6902 0.0000
vt 0.8231 0.6902 0.0000
vt 0.7275 0.8106 0.0000
vt 0.6893 0.8106 0.0000
vt 0.6893 0.7854 0.0000
vt 0.7275 0.7854 0.0000
vt 0.5021 0.7854 0.0000
vt 0.5304 0.7854 0.0000
vt 0.5304 0.8106 0.0000
vt 0.5021 0.8106 0.0000
vt 0.6283 0.8106 0.0000
vt 0.6283 0.7854 0.0000
vt 0.6013 0.7854 0.0000
vt 0.6013 0.8106 0.0000
vt 0.9529 0.4648 0.0000
vt 0.9529 0.5717 0.0000
vt 0.9529 0.6570 0.0000
vt 0.9529 0.6902 0.0000
vt 0.6013 0.3839 0.0000
vt 0.6283 0.3839 0.0000
vt 0.6013 0.2143 0.0000
vt 0.6013 0.1488 0.0000
vt 0.6283 0.1488 0.0000
vt 0.6283 0.2143 0.0000
vt 0.7275 0.3839 0.0000
vt 0.5021 0.3839 0.0000
vt 0.5021 0.2143 0.0000
vt 0.5021 0.1488 0.0000
vt 0.7275 0.1488 0.0000
vt 0.7275 0.2143 0.0000
vt 0.4293 0.2567 0.0000
vt 0.4293 0.3287 0.0000
vt 0.7946 0.3287 0.0000
vt 0.7946 0.2567 0.0000
# 100 texture coords

g B_P
usemtl b_punta
f 1/1/1 2/2/2 3/3/3 
f 3/3/3 4/4/4 1/1/1 
f 4/4/4 5/5/5 6/6/6 
f 6/6/6 1/1/1 4/4/4 
f 5/5/5 7/7/7 8/8/8 
f 8/8/8 6/6/6 5/5/5 
f 9/9/9 10/10/10 11/11/11 
f 11/11/11 12/12/12 9/9/9 
f 10/10/10 13/13/13 14/14/14 
f 14/14/14 11/11/11 10/10/10 
f 13/13/13 15/15/15 16/16/16 
f 16/16/16 14/14/14 13/13/13 
f 2/2/2 17/17/17 18/18/18 
f 18/18/18 3/3/3 2/2/2 
f 15/19/15 19/20/19 20/21/20 
f 20/21/20 16/22/16 15/19/15 
f 11/11/11 14/14/14 21/23/21 
f 21/23/21 22/24/22 11/11/11 
f 6/6/6 23/25/23 24/26/24 
f 24/26/24 1/1/1 6/6/6 
f 5/5/5 4/4/4 25/27/25 
f 25/27/25 26/28/26 5/5/5 
f 10/10/10 27/29/27 28/30/28 
f 28/30/28 13/13/13 10/10/10 
f 7/7/7 5/5/5 26/28/26 
f 26/28/26 29/31/29 7/7/7 
f 30/32/30 23/25/23 6/6/6 
f 6/6/6 8/8/8 30/32/30 
f 12/12/12 11/11/11 22/24/22 
f 22/24/22 31/33/31 12/12/12 
f 10/10/10 9/9/9 32/34/32 
f 32/34/32 27/29/27 10/10/10 
f 1/1/1 24/26/24 33/35/33 
f 33/35/33 2/2/2 1/1/1 
f 4/4/4 3/3/3 34/36/34 
f 34/36/34 25/27/25 4/4/4 
f 14/14/14 16/16/16 35/37/35 
f 35/37/35 21/23/21 14/14/14 
f 13/13/13 28/30/28 36/38/36 
f 36/38/36 15/15/15 13/13/13 
f 2/2/2 33/35/33 37/39/37 
f 37/39/37 17/17/17 2/2/2 
f 3/3/3 18/18/18 38/40/38 
f 38/40/38 34/36/34 3/3/3 
f 16/22/16 20/21/20 39/41/39 
f 39/41/39 35/42/35 16/22/16 
f 15/19/15 36/43/36 40/44/40 
f 40/44/40 19/20/19 15/19/15 
f 41/45/41 42/46/42 43/47/43 
f 43/47/43 44/48/44 41/45/41 
f 44/48/44 45/49/45 46/50/46 
f 46/50/46 41/45/41 44/48/44 
f 45/49/45 47/51/47 48/52/48 
f 48/52/48 46/50/46 45/49/45 
f 49/53/49 50/54/49 51/55/49 
f 51/55/49 52/56/49 49/53/49 
f 53/57/49 54/58/49 55/59/49 
f 55/59/49 56/60/49 53/57/49 
f 57/61/50 58/62/51 59/63/52 
f 59/63/52 60/64/53 57/61/50 
f 58/62/51 61/65/54 62/66/55 
f 62/66/55 59/63/52 58/62/51 
f 61/65/54 63/67/56 64/68/57 
f 64/68/57 62/66/55 61/65/54 
f 63/69/56 65/70/58 66/71/59 
f 66/71/59 64/72/57 63/69/56 
f 42/73/42 67/74/60 68/75/61 
f 68/75/61 43/76/43 42/73/42 
f 65/70/58 69/77/62 70/78/63 
f 70/78/63 66/71/59 65/70/58 
f 67/74/60 71/79/64 72/80/65 
f 72/80/65 68/75/61 67/74/60 
f 71/79/64 70/78/63 69/77/62 
f 69/77/62 72/80/65 71/79/64 
f 59/63/52 62/66/55 24/26/66 
f 24/26/66 23/25/67 59/63/52 
f 25/27/68 41/45/41 46/50/46 
f 46/50/46 26/28/69 25/27/68 
f 60/64/53 59/63/52 23/25/67 
f 23/25/67 30/32/70 60/64/53 
f 26/28/69 46/50/46 48/52/48 
f 48/52/48 29/31/71 26/28/69 
f 28/30/72 27/29/73 45/49/45 
f 45/49/45 44/48/44 28/30/72 
f 47/51/47 45/49/45 27/29/73 
f 27/29/73 32/34/74 47/51/47 
f 57/61/50 31/81/75 22/82/76 
f 22/82/76 58/62/51 57/61/50 
f 58/62/51 22/82/76 21/83/77 
f 21/83/77 61/65/54 58/62/51 
f 62/66/55 64/68/57 33/35/78 
f 33/35/78 24/26/66 62/66/55 
f 41/45/41 25/27/68 34/36/79 
f 34/36/79 42/46/42 41/45/41 
f 61/65/54 21/83/77 35/84/80 
f 35/84/80 63/67/56 61/65/54 
f 44/48/44 43/47/43 36/38/81 
f 36/38/81 28/30/72 44/48/44 
f 64/72/57 66/71/59 37/39/37 
f 37/39/37 33/35/78 64/72/57 
f 42/73/42 34/36/79 38/40/38 
f 38/40/38 67/74/60 42/73/42 
f 63/69/56 35/42/80 39/41/39 
f 39/41/39 65/70/58 63/69/56 
f 43/76/43 68/75/61 40/44/40 
f 40/44/40 36/43/81 43/76/43 
f 7/7/82 73/85/82 74/86/83 
f 74/86/83 8/8/83 7/7/82 
f 75/87/49 9/88/49 12/89/84 
f 12/89/84 76/90/84 75/87/49 
f 17/17/17 70/78/63 71/79/64 
f 71/79/64 18/18/18 17/17/17 
f 69/77/62 20/21/20 19/20/19 
f 19/20/19 72/80/65 69/77/62 
f 37/39/37 66/71/59 70/78/63 
f 70/78/63 17/17/17 37/39/37 
f 74/86/83 60/91/83 30/32/83 
f 30/32/83 8/8/83 74/86/83 
f 29/31/82 48/92/82 73/85/82 
f 73/85/82 7/7/82 29/31/82 
f 71/79/64 67/74/60 38/40/38 
f 38/40/38 18/18/18 71/79/64 
f 75/87/49 47/93/49 32/94/49 
f 32/94/49 9/88/49 75/87/49 
f 76/90/84 12/89/84 31/95/84 
f 31/95/84 57/96/84 76/90/84 
f 69/77/62 65/70/58 39/41/39 
f 39/41/39 20/21/20 69/77/62 
f 72/80/65 19/20/19 40/44/40 
f 40/44/40 68/75/61 72/80/65 
f 50/54/49 55/59/49 54/58/49 
f 54/58/49 51/55/49 50/54/49 
f 47/97/85 49/53/85 52/56/85 
f 52/56/85 48/98/85 47/97/85 
f 75/87/86 50/54/86 49/53/86 
f 49/53/86 47/93/86 75/87/86 
f 73/85/87 48/92/87 52/56/87 
f 52/56/87 51/55/87 73/85/87 
f 60/99/88 53/57/88 56/60/88 
f 56/60/88 57/100/88 60/99/88 
f 74/86/87 54/58/87 53/57/87 
f 53/57/87 60/91/87 74/86/87 
f 76/90/89 57/96/89 56/60/89 
f 56/60/89 55/59/89 76/90/89 
f 76/90/86 55/59/86 50/54/86 
f 50/54/86 75/87/86 76/90/86 
f 73/85/87 51/55/87 54/58/87 
f 54/58/87 74/86/87 73/85/87 
# 148 faces

