# 3ds Max Wavefront OBJ Exporter v0.97b - (c)2007 guruware
# File Created: 25.05.2019 12:56:45

mtllib canion.mtl

#
# object pCube76
#

v  -0.2600 -0.1800 -0.2023
v  -0.2600 -0.2093 -0.0287
v  -0.2699 0.0130 -0.0150
v  -0.2600 0.0259 -0.2387
v  -0.2379 0.2475 -0.1920
v  -0.2379 0.2579 0.0011
v  0.0019 0.2782 0.0024
v  0.0019 0.2670 -0.2067
v  0.2737 0.0130 -0.0141
v  0.2638 -0.2076 -0.0302
v  0.2638 -0.1786 -0.2008
v  0.2639 0.0258 -0.2370
v  0.0019 -0.2521 -0.0323
v  -0.2379 -0.2318 -0.0310
v  -0.2379 -0.1994 -0.2213
v  0.0019 -0.2171 -0.2384
v  -0.2379 -0.2214 0.1621
v  0.0019 -0.2419 0.1775
v  0.0019 -0.0023 0.2522
v  -0.2379 -0.0011 0.2317
v  -0.2600 0.2354 -0.0012
v  -0.2600 0.2261 -0.1757
v  0.2638 0.2245 -0.1745
v  0.2638 0.2337 0.0003
v  0.0019 0.2432 0.2085
v  -0.2379 0.2255 0.1914
v  0.2638 0.2047 0.1709
v  0.2639 0.0003 0.2071
v  0.2638 -0.2000 0.1457
v  -0.2600 -0.2000 0.1457
v  -0.2600 0.0002 0.2087
v  -0.2600 0.2061 0.1723
v  -0.2379 0.0272 -0.2617
v  0.2417 -0.2299 -0.0309
v  0.2417 -0.1978 -0.2197
v  0.2417 0.0271 -0.2598
v  0.2417 0.2560 0.0009
v  0.2417 0.2458 -0.1907
v  0.2417 0.2239 0.1898
v  0.2417 -0.0010 0.2299
v  0.2417 -0.2214 0.1621
v  0.0019 0.0338 -0.4530
v  0.0919 0.0378 -0.4462
v  0.0919 -0.0454 -0.4517
v  0.0019 -0.0526 -0.4587
v  -0.1151 -0.0816 -0.2736
v  0.0019 -0.0902 -0.2820
v  -0.1151 0.1366 -0.2593
v  -0.1151 0.0275 -0.2665
v  0.0019 0.1461 -0.2665
v  0.1190 0.1357 -0.2587
v  0.1190 0.0274 -0.2658
v  0.1190 -0.0808 -0.2729
v  -0.0986 -0.0618 -0.3483
v  0.0019 -0.0692 -0.3555
v  -0.0986 0.1255 -0.3361
v  -0.0986 0.0318 -0.3422
v  0.0019 0.1337 -0.3422
v  0.1024 0.1248 -0.3355
v  0.1024 0.0318 -0.3416
v  0.1024 -0.0612 -0.3477
v  -0.0986 -0.0580 -0.4156
v  0.0019 -0.0654 -0.4228
v  -0.0986 0.1294 -0.4033
v  -0.0986 0.0357 -0.4095
v  0.0019 0.1375 -0.4095
v  0.1024 0.1286 -0.4028
v  0.1024 0.0357 -0.4088
v  0.1024 -0.0573 -0.4149
v  0.0019 0.1848 -0.4111
v  0.1312 0.1558 -0.4103
v  0.1312 0.1586 -0.4602
v  0.0019 0.1881 -0.4678
v  -0.1274 0.1596 -0.4606
v  -0.1274 0.1567 -0.4107
v  -0.1452 0.0360 -0.4151
v  -0.1452 0.0393 -0.4719
v  -0.1274 -0.0843 -0.4264
v  -0.1274 -0.0814 -0.4764
v  0.0019 -0.1121 -0.4305
v  0.0019 -0.1089 -0.4873
v  0.1312 -0.0805 -0.4758
v  0.1312 -0.0834 -0.4259
v  0.1490 0.0393 -0.4714
v  0.1490 0.0360 -0.4146
v  0.1024 0.1325 -0.4700
v  0.0019 0.1414 -0.4767
v  -0.0986 0.1332 -0.4706
v  -0.0986 0.0396 -0.4767
v  -0.0986 -0.0541 -0.4828
v  0.0019 -0.0615 -0.4900
v  0.1024 -0.0534 -0.4822
v  0.1024 0.0395 -0.4761
v  -0.0880 -0.0460 -0.4522
v  -0.0880 0.0378 -0.4468
v  -0.0880 0.1217 -0.4413
v  0.0019 0.1290 -0.4468
v  0.0919 0.1210 -0.4408
# 98 vertices

vn -0.9993 -0.0247 -0.0275
vn -0.9997 -0.0263 -0.0016
vn -1.0000 0.0000 -0.0000
vn -0.9997 0.0015 -0.0261
vn -0.1339 0.9896 -0.0530
vn -0.1521 0.9867 0.0568
vn 0.0037 0.9983 0.0574
vn 0.0035 0.9986 -0.0535
vn 1.0000 -0.0000 0.0001
vn 0.9997 -0.0262 -0.0016
vn 0.9993 -0.0245 -0.0275
vn 0.9997 0.0016 -0.0260
vn 0.0028 -0.9982 -0.0595
vn -0.1530 -0.9865 -0.0578
vn -0.1342 -0.9769 -0.1661
vn 0.0035 -0.9858 -0.1676
vn -0.1335 -0.2967 0.9456
vn 0.0018 -0.2976 0.9547
vn 0.0027 -0.0636 0.9980
vn -0.1503 -0.0638 0.9866
vn -0.9997 0.0263 0.0016
vn -0.9993 0.0280 -0.0246
vn 0.9993 0.0280 -0.0244
vn 0.9997 0.0263 0.0016
vn 0.0035 0.1753 0.9845
vn -0.1320 0.1737 0.9759
vn -0.1342 0.9769 0.1661
vn 0.0035 0.9858 0.1676
vn 0.9993 0.0246 0.0276
vn 0.9997 -0.0018 0.0260
vn 0.9993 -0.0280 0.0244
vn 0.0018 -0.9988 0.0488
vn -0.1356 -0.9895 0.0507
vn -0.9993 -0.0280 0.0246
vn -0.9997 -0.0015 0.0261
vn -0.9993 0.0247 0.0275
vn -0.7135 -0.6995 -0.0386
vn -0.7124 -0.6919 -0.1173
vn -0.7096 -0.1231 -0.6938
vn -0.7104 0.7028 -0.0377
vn -0.7135 0.6996 0.0386
vn -0.7084 0.2123 -0.6731
vn -0.7104 -0.7028 0.0377
vn -0.7084 -0.2123 0.6731
vn -0.7096 0.1231 0.6938
vn -0.7124 0.6919 0.1173
vn 0.1575 -0.9857 -0.0597
vn 0.1401 -0.9761 -0.1660
vn 0.7085 -0.6957 -0.1183
vn 0.7110 -0.7017 -0.0444
vn 0.7071 -0.1236 -0.6963
vn 0.1582 0.9858 0.0564
vn 0.7110 0.7020 0.0413
vn 0.7093 0.7040 -0.0374
vn 0.1407 0.9886 -0.0530
vn 0.7056 0.2131 -0.6758
vn 0.1401 0.9761 0.1660
vn 0.7085 0.6958 0.1183
vn 0.1550 -0.0621 0.9860
vn 0.7069 0.1236 0.6964
vn 0.1383 0.1736 0.9751
vn 0.1363 -0.2929 0.9464
vn 0.7065 -0.2077 0.6766
vn 0.7096 -0.7039 0.0309
vn 0.1387 -0.9893 0.0459
vn 0.0029 0.0654 -0.9979
vn 0.0724 0.0652 -0.9952
vn 0.0028 0.0653 -0.9979
vn -0.0911 -0.3235 -0.9418
vn -0.1834 0.0643 -0.9809
vn -0.1808 0.2232 -0.9579
vn -0.1834 0.0642 -0.9809
vn -0.0906 0.4413 -0.8928
vn 0.0987 0.4410 -0.8920
vn 0.1914 0.0642 -0.9794
vn 0.1914 0.0641 -0.9794
vn 0.1887 0.2228 -0.9564
vn 0.0993 -0.3233 -0.9411
vn -0.0900 -0.9576 -0.2736
vn -0.9770 0.0139 -0.2130
vn -0.0897 0.9828 -0.1615
vn 0.0978 0.9820 -0.1614
vn 0.9770 0.0139 -0.2127
vn 0.0981 -0.9569 -0.2734
vn -0.0773 -0.9954 -0.0572
vn -0.0773 0.9954 0.0572
vn 0.0843 0.9948 0.0571
vn 1.0000 0.0000 0.0000
vn 0.0843 -0.9948 -0.0571
vn -0.9770 0.0140 -0.2130
vn -0.1813 -0.0968 -0.9786
vn 0.1892 -0.0966 -0.9772
vn 0.2186 0.9742 0.0559
vn -0.2121 0.9757 0.0560
vn -1.0000 0.0008 0.0000
vn -0.9893 0.1458 0.0084
vn -1.0000 -0.0008 -0.0000
vn -0.9893 -0.1458 -0.0084
vn -0.2121 -0.9757 -0.0560
vn 0.2186 -0.9742 -0.0559
vn 1.0000 -0.0008 -0.0000
vn 1.0000 0.0008 0.0000
vn 0.9891 -0.1468 -0.0084
vn 0.9891 0.1468 0.0084
vn -0.0116 0.1258 0.9920
vn 0.0962 0.2113 -0.9727
vn 0.0091 0.1223 0.9925
vn -0.0912 0.2151 -0.9723
vn -0.1823 -0.0336 0.9827
vn -0.1598 0.0936 -0.9827
vn -0.1821 -0.0949 0.9787
vn -0.1598 0.0354 -0.9865
vn 0.0090 -0.2500 0.9682
vn -0.0914 -0.0869 -0.9920
vn -0.0116 -0.2533 0.9673
vn 0.0964 -0.0833 -0.9919
vn 0.1850 -0.0956 0.9781
vn 0.1568 0.0357 -0.9870
vn 0.1852 -0.0327 0.9822
vn 0.1566 0.0933 -0.9833
vn 0.1566 0.0933 -0.9832
vn 0.0512 0.9607 -0.2727
vn 0.9432 0.0217 -0.3314
vn 0.0515 -0.9226 -0.3823
vn -0.0561 -0.9223 -0.3824
vn -0.9430 0.0217 -0.3321
vn -0.9430 0.0218 -0.3320
vn -0.0559 0.9605 -0.2727
vn -0.0663 0.0651 -0.9957
vn -0.0663 0.0652 -0.9957
vn -0.0664 0.0653 -0.9957
vn 0.0027 0.0654 -0.9979
# 132 vertex normals

vt 0.2091 0.7144 0.0000
vt 0.2788 0.7144 0.0000
vt 0.2788 0.7771 0.0000
vt 0.2091 0.7771 0.0000
vt 0.3726 0.7170 0.0000
vt 0.4420 0.7170 0.0000
vt 0.4420 0.7797 0.0000
vt 0.3726 0.7797 0.0000
vt 0.2796 0.6340 0.0000
vt 0.2796 0.5713 0.0000
vt 0.3452 0.5713 0.0000
vt 0.3452 0.6340 0.0000
vt 0.4455 0.6349 0.0000
vt 0.4455 0.6993 0.0000
vt 0.3760 0.6993 0.0000
vt 0.3760 0.6349 0.0000
vt 0.5795 0.0567 0.0000
vt 0.6761 0.0567 0.0000
vt 0.6761 0.1367 0.0000
vt 0.5795 0.1367 0.0000
vt 0.2788 0.8415 0.0000
vt 0.2091 0.8415 0.0000
vt 0.3452 0.6984 0.0000
vt 0.2796 0.6984 0.0000
vt 0.6761 0.2239 0.0000
vt 0.5795 0.2239 0.0000
vt 0.5153 0.7170 0.0000
vt 0.5153 0.7797 0.0000
vt 0.2099 0.6984 0.0000
vt 0.2099 0.6340 0.0000
vt 0.2099 0.5713 0.0000
vt 0.5188 0.6349 0.0000
vt 0.5188 0.6993 0.0000
vt 0.3444 0.7144 0.0000
vt 0.3444 0.7771 0.0000
vt 0.3444 0.8415 0.0000
vt 0.3923 0.1049 0.0000
vt 0.3923 0.1357 0.0000
vt 0.3266 0.1357 0.0000
vt 0.2927 0.1049 0.0000
vt 0.2927 0.1972 0.0000
vt 0.3266 0.1972 0.0000
vt 0.3923 0.2877 0.0000
vt 0.2927 0.2877 0.0000
vt 0.3266 0.2569 0.0000
vt 0.3923 0.2569 0.0000
vt 0.4878 0.1049 0.0000
vt 0.4555 0.1357 0.0000
vt 0.4878 0.1972 0.0000
vt 0.4555 0.1972 0.0000
vt 0.4878 0.2877 0.0000
vt 0.4555 0.2569 0.0000
vt 0.1661 0.1054 0.0000
vt 0.2616 0.1054 0.0000
vt 0.2293 0.1367 0.0000
vt 0.1661 0.1367 0.0000
vt 0.2616 0.1963 0.0000
vt 0.2293 0.1963 0.0000
vt 0.1661 0.2875 0.0000
vt 0.1661 0.2569 0.0000
vt 0.2293 0.2569 0.0000
vt 0.2616 0.2875 0.0000
vt 0.0665 0.2875 0.0000
vt 0.1003 0.2569 0.0000
vt 0.0665 0.1963 0.0000
vt 0.1003 0.1963 0.0000
vt 0.0665 0.1054 0.0000
vt 0.1003 0.1367 0.0000
vt 0.5153 0.8441 0.0000
vt 0.4420 0.8441 0.0000
vt 0.3726 0.8441 0.0000
vt 0.3760 0.5722 0.0000
vt 0.4455 0.5722 0.0000
vt 0.5188 0.5722 0.0000
vt 0.7727 0.0567 0.0000
vt 0.7727 0.1367 0.0000
vt 0.7727 0.2239 0.0000
vt 0.6906 0.6606 0.0000
vt 0.6544 0.6606 0.0000
vt 0.6544 0.6297 0.0000
vt 0.6906 0.6297 0.0000
vt 0.6773 0.2641 0.0000
vt 0.7739 0.2641 0.0000
vt 0.7245 0.3129 0.0000
vt 0.6773 0.3129 0.0000
vt 0.7739 0.3502 0.0000
vt 0.7739 0.4308 0.0000
vt 0.7245 0.3875 0.0000
vt 0.7245 0.3502 0.0000
vt 0.6773 0.4308 0.0000
vt 0.6773 0.3875 0.0000
vt 0.5807 0.4308 0.0000
vt 0.6302 0.3875 0.0000
vt 0.5807 0.3502 0.0000
vt 0.6302 0.3502 0.0000
vt 0.6302 0.3129 0.0000
vt 0.5807 0.2641 0.0000
vt 0.4152 0.8846 0.0000
vt 0.4731 0.8846 0.0000
vt 0.4731 0.9154 0.0000
vt 0.4152 0.9154 0.0000
vt 0.5264 0.8846 0.0000
vt 0.5868 0.8846 0.0000
vt 0.5868 0.9154 0.0000
vt 0.5264 0.9154 0.0000
vt 0.6447 0.8846 0.0000
vt 0.6447 0.9154 0.0000
vt 0.7026 0.8846 0.0000
vt 0.7026 0.9154 0.0000
vt 0.3104 0.8846 0.0000
vt 0.3104 0.9154 0.0000
vt 0.2425 0.9154 0.0000
vt 0.2425 0.8846 0.0000
vt 0.3573 0.9154 0.0000
vt 0.3573 0.8846 0.0000
vt 0.4731 0.9461 0.0000
vt 0.4152 0.9461 0.0000
vt 0.5868 0.9461 0.0000
vt 0.5264 0.9461 0.0000
vt 0.6447 0.9461 0.0000
vt 0.7026 0.9461 0.0000
vt 0.3104 0.9461 0.0000
vt 0.2425 0.9461 0.0000
vt 0.3573 0.9461 0.0000
vt 0.8833 0.8609 0.0000
vt 0.8833 0.9387 0.0000
vt 0.8193 0.9387 0.0000
vt 0.8193 0.8609 0.0000
vt 0.8193 0.7831 0.0000
vt 0.8833 0.7831 0.0000
vt 0.8833 0.7095 0.0000
vt 0.8193 0.7095 0.0000
vt 0.8833 0.6447 0.0000
vt 0.8193 0.6447 0.0000
vt 0.8833 0.5669 0.0000
vt 0.8193 0.5669 0.0000
vt 0.8193 0.4891 0.0000
vt 0.8833 0.4891 0.0000
vt 0.8193 0.4320 0.0000
vt 0.8833 0.4320 0.0000
vt 0.8193 0.3494 0.0000
vt 0.8833 0.3494 0.0000
vt 0.7283 0.8115 0.0000
vt 0.7470 0.8314 0.0000
vt 0.6878 0.8314 0.0000
vt 0.6878 0.8115 0.0000
vt 0.6541 0.5762 0.0000
vt 0.6946 0.5762 0.0000
vt 0.6946 0.5955 0.0000
vt 0.6353 0.5955 0.0000
vt 0.6473 0.8115 0.0000
vt 0.6285 0.8314 0.0000
vt 0.7351 0.5762 0.0000
vt 0.7538 0.5955 0.0000
vt 0.6285 0.7795 0.0000
vt 0.6473 0.7795 0.0000
vt 0.7351 0.5443 0.0000
vt 0.7538 0.5443 0.0000
vt 0.6473 0.7475 0.0000
vt 0.6285 0.7291 0.0000
vt 0.7351 0.5122 0.0000
vt 0.7538 0.4932 0.0000
vt 0.6878 0.7291 0.0000
vt 0.6878 0.7475 0.0000
vt 0.6946 0.5122 0.0000
vt 0.6946 0.4932 0.0000
vt 0.7283 0.7475 0.0000
vt 0.7470 0.7291 0.0000
vt 0.6541 0.5122 0.0000
vt 0.6353 0.4932 0.0000
vt 0.7470 0.7795 0.0000
vt 0.7283 0.7795 0.0000
vt 0.6541 0.5443 0.0000
vt 0.6353 0.5443 0.0000
vt 0.0910 0.7347 0.0000
vt 0.0910 0.6700 0.0000
vt 0.1647 0.6700 0.0000
vt 0.1647 0.7347 0.0000
vt 0.0910 0.5920 0.0000
vt 0.1647 0.5920 0.0000
vt 0.0910 0.5273 0.0000
vt 0.1647 0.5273 0.0000
vt 0.0910 0.4626 0.0000
vt 0.1647 0.4626 0.0000
vt 0.0910 0.3979 0.0000
vt 0.1647 0.3979 0.0000
vt 0.0910 0.8641 0.0000
vt 0.1647 0.8641 0.0000
vt 0.1647 0.9421 0.0000
vt 0.0910 0.9421 0.0000
vt 0.0910 0.7994 0.0000
vt 0.1647 0.7994 0.0000
vt 0.7269 0.6297 0.0000
vt 0.7269 0.6606 0.0000
vt 0.7269 0.6922 0.0000
vt 0.6906 0.6922 0.0000
vt 0.6544 0.6922 0.0000
# 197 texture coords

g pCube76
usemtl 09___Default
f 1/1/1 2/2/2 3/3/3 
f 3/3/3 4/4/4 1/1/1 
f 5/5/5 6/6/6 7/7/7 
f 7/7/7 8/8/8 5/5/5 
f 9/9/9 10/10/10 11/11/11 
f 11/11/11 12/12/12 9/9/9 
f 13/13/13 14/14/14 15/15/15 
f 15/15/15 16/16/16 13/13/13 
f 17/17/17 18/18/18 19/19/19 
f 19/19/19 20/20/20 17/17/17 
f 3/3/3 21/21/21 22/22/22 
f 22/22/22 4/4/4 3/3/3 
f 23/23/23 24/24/24 9/9/9 
f 9/9/9 12/12/12 23/23/23 
f 19/19/19 25/25/25 26/26/26 
f 26/26/26 20/20/20 19/19/19 
f 26/27/27 25/28/28 7/7/7 
f 7/7/7 6/6/6 26/27/27 
f 9/9/9 24/24/24 27/29/29 
f 27/29/29 28/30/30 9/9/9 
f 9/9/9 28/30/30 29/31/31 
f 29/31/31 10/10/10 9/9/9 
f 13/13/13 18/32/32 17/33/33 
f 17/33/33 14/14/14 13/13/13 
f 3/3/3 2/2/2 30/34/34 
f 30/34/34 31/35/35 3/3/3 
f 3/3/3 31/35/35 32/36/36 
f 32/36/36 21/21/21 3/3/3 
f 14/37/14 2/38/37 1/39/38 
f 1/39/38 15/40/15 14/37/14 
f 33/41/39 15/40/39 1/39/39 
f 1/39/39 4/42/39 33/41/39 
f 6/43/6 5/44/5 22/45/40 
f 22/45/40 21/46/41 6/43/6 
f 33/41/42 4/42/42 22/45/42 
f 22/45/42 5/44/42 33/41/42 
f 14/37/14 17/47/33 30/48/43 
f 30/48/43 2/38/37 14/37/14 
f 20/49/20 31/50/44 30/48/44 
f 30/48/44 17/47/17 20/49/20 
f 20/49/20 26/51/26 32/52/45 
f 32/52/45 31/50/45 20/49/20 
f 6/43/6 21/46/41 32/52/46 
f 32/52/46 26/51/27 6/43/6 
f 34/53/47 35/54/48 11/55/49 
f 11/55/49 10/56/50 34/53/47 
f 36/57/51 12/58/51 11/55/51 
f 11/55/51 35/54/51 36/57/51 
f 37/59/52 24/60/53 23/61/54 
f 23/61/54 38/62/55 37/59/52 
f 36/57/56 38/62/56 23/61/56 
f 23/61/56 12/58/56 36/57/56 
f 37/59/52 39/63/57 27/64/58 
f 27/64/58 24/60/53 37/59/52 
f 40/65/59 28/66/60 27/64/60 
f 27/64/60 39/63/61 40/65/59 
f 40/65/59 41/67/62 29/68/63 
f 29/68/63 28/66/63 40/65/59 
f 34/53/47 10/56/50 29/68/64 
f 29/68/64 41/67/65 34/53/47 
f 7/7/7 25/28/28 39/69/57 
f 39/69/57 37/70/52 7/7/7 
f 7/7/7 37/70/52 38/71/55 
f 38/71/55 8/8/8 7/7/7 
f 35/72/48 34/73/47 13/13/13 
f 13/13/13 16/16/16 35/72/48 
f 13/13/13 34/73/47 41/74/65 
f 41/74/65 18/32/32 13/13/13 
f 19/19/19 18/18/18 41/75/62 
f 41/75/62 40/76/59 19/19/19 
f 19/19/19 40/76/59 39/77/61 
f 39/77/61 25/25/25 19/19/19 
f 42/78/66 43/79/67 44/80/67 
f 44/80/67 45/81/68 42/78/66 
f 16/82/69 15/83/69 46/84/69 
f 46/84/69 47/85/69 16/82/69 
f 33/86/70 5/87/71 48/88/71 
f 48/88/71 49/89/72 33/86/70 
f 8/90/73 50/91/73 48/88/73 
f 48/88/73 5/87/73 8/90/73 
f 8/90/74 38/92/74 51/93/74 
f 51/93/74 50/91/74 8/90/74 
f 36/94/75 52/95/76 51/93/77 
f 51/93/77 38/92/77 36/94/75 
f 16/82/78 47/85/78 53/96/78 
f 53/96/78 35/97/78 16/82/78 
f 47/98/79 46/99/79 54/100/79 
f 54/100/79 55/101/79 47/98/79 
f 49/102/80 48/103/80 56/104/80 
f 56/104/80 57/105/80 49/102/80 
f 50/106/81 58/107/81 56/104/81 
f 56/104/81 48/103/81 50/106/81 
f 50/106/82 51/108/82 59/109/82 
f 59/109/82 58/107/82 50/106/82 
f 52/110/83 60/111/83 59/112/83 
f 59/112/83 51/113/83 52/110/83 
f 47/98/84 55/101/84 61/114/84 
f 61/114/84 53/115/84 47/98/84 
f 55/101/85 54/100/85 62/116/85 
f 62/116/85 63/117/85 55/101/85 
f 57/105/3 56/104/3 64/118/3 
f 64/118/3 65/119/3 57/105/3 
f 58/107/86 66/120/86 64/118/86 
f 64/118/86 56/104/86 58/107/86 
f 58/107/87 59/109/87 67/121/87 
f 67/121/87 66/120/87 58/107/87 
f 60/111/88 68/122/88 67/123/88 
f 67/123/88 59/112/88 60/111/88 
f 55/101/89 63/117/89 69/124/89 
f 69/124/89 61/114/89 55/101/89 
f 54/100/3 57/105/3 65/119/3 
f 65/119/3 62/116/3 54/100/3 
f 49/102/80 57/105/80 54/100/90 
f 54/100/90 46/99/90 49/102/80 
f 33/86/70 49/89/72 46/84/91 
f 46/84/91 15/83/91 33/86/70 
f 36/94/75 35/97/92 53/96/92 
f 53/96/92 52/95/76 36/94/75 
f 52/110/83 53/115/83 61/114/83 
f 61/114/83 60/111/83 52/110/83 
f 68/122/88 60/111/88 61/114/88 
f 61/114/88 69/124/88 68/122/88 
f 70/125/93 71/126/93 72/127/93 
f 72/127/93 73/128/93 70/125/93 
f 70/125/94 73/128/94 74/129/94 
f 74/129/94 75/130/94 70/125/94 
f 76/131/95 75/130/96 74/129/96 
f 74/129/96 77/132/97 76/131/95 
f 78/133/98 76/131/95 77/132/97 
f 77/132/97 79/134/98 78/133/98 
f 80/135/99 78/133/99 79/134/99 
f 79/134/99 81/136/99 80/135/99 
f 80/135/100 81/136/100 82/137/100 
f 82/137/100 83/138/100 80/135/100 
f 84/139/101 85/140/102 83/138/103 
f 83/138/103 82/137/103 84/139/101 
f 85/140/102 84/139/101 72/141/104 
f 72/141/104 71/142/104 85/140/102 
f 67/143/105 71/144/105 70/145/105 
f 70/145/105 66/146/105 67/143/105 
f 86/147/106 87/148/106 73/149/106 
f 73/149/106 72/150/106 86/147/106 
f 64/151/107 66/146/107 70/145/107 
f 70/145/107 75/152/107 64/151/107 
f 88/153/108 74/154/108 73/149/108 
f 73/149/108 87/148/108 88/153/108 
f 64/151/109 75/152/109 76/155/109 
f 76/155/109 65/156/109 64/151/109 
f 88/153/110 89/157/110 77/158/110 
f 77/158/110 74/154/110 88/153/110 
f 62/159/111 65/156/111 76/155/111 
f 76/155/111 78/160/111 62/159/111 
f 90/161/112 79/162/112 77/158/112 
f 77/158/112 89/157/112 90/161/112 
f 62/159/113 78/160/113 80/163/113 
f 80/163/113 63/164/113 62/159/113 
f 90/161/114 91/165/114 81/166/114 
f 81/166/114 79/162/114 90/161/114 
f 69/167/115 63/164/115 80/163/115 
f 80/163/115 83/168/115 69/167/115 
f 92/169/116 82/170/116 81/166/116 
f 81/166/116 91/165/116 92/169/116 
f 69/167/117 83/168/117 85/171/117 
f 85/171/117 68/172/117 69/167/117 
f 92/169/118 93/173/118 84/174/118 
f 84/174/118 82/170/118 92/169/118 
f 67/143/119 68/172/119 85/171/119 
f 85/171/119 71/144/119 67/143/119 
f 86/147/120 72/150/120 84/174/120 
f 84/174/120 93/173/121 86/147/120 
f 91/175/122 90/176/122 94/177/122 
f 94/177/122 45/178/122 91/175/122 
f 89/179/123 95/180/123 94/177/123 
f 94/177/123 90/176/123 89/179/123 
f 89/179/123 88/181/123 96/182/123 
f 96/182/123 95/180/123 89/179/123 
f 87/183/124 97/184/124 96/182/124 
f 96/182/124 88/181/124 87/183/124 
f 87/183/125 86/185/125 98/186/125 
f 98/186/125 97/184/125 87/183/125 
f 93/187/126 43/188/126 98/189/126 
f 98/189/126 86/190/126 93/187/126 
f 93/187/127 92/191/127 44/192/127 
f 44/192/127 43/188/127 93/187/127 
f 91/175/128 45/178/128 44/192/128 
f 44/192/128 92/191/128 91/175/128 
f 94/193/129 95/194/130 42/78/66 
f 42/78/66 45/81/68 94/193/129 
f 42/78/66 95/194/130 96/195/131 
f 96/195/131 97/196/132 42/78/66 
f 42/78/66 97/196/132 98/197/67 
f 98/197/67 43/79/67 42/78/66 
# 192 faces

