# 3ds Max Wavefront OBJ Exporter v0.97b - (c)2007 guruware
# File Created: 28.05.2019 15:53:45

mtllib key.mtl

#
# object pCube1
#

v  0.0563 0.1015 0.0000
v  0.1718 0.1777 0.0000
v  0.1718 0.1777 0.0351
v  0.0563 0.1015 0.0351
v  0.2161 0.4622 0.0000
v  0.0001 0.5705 0.0000
v  0.0001 0.5705 0.0351
v  0.2202 0.4622 0.0351
v  -0.1718 0.1777 -0.0000
v  -0.0461 0.1015 -0.0000
v  -0.0461 0.1015 0.0351
v  -0.1718 0.1777 0.0351
v  0.0022 -0.5705 0.0000
v  0.0563 -0.5705 0.0000
v  0.0563 -0.5705 0.0351
v  0.0022 -0.5705 0.0351
v  0.0001 0.1441 0.0351
v  0.0001 0.1015 0.0351
v  -0.2121 0.4622 -0.0000
v  -0.2121 0.4622 0.0351
v  -0.0325 -0.5705 -0.0000
v  -0.0325 -0.5705 0.0351
v  0.2494 0.2725 0.0000
v  0.2494 0.2725 0.0351
v  0.1036 0.3829 0.0000
v  -0.0002 0.4306 -0.0000
v  -0.1010 0.3829 -0.0000
v  -0.2494 0.2725 -0.0000
v  -0.2494 0.2725 0.0351
v  0.1036 0.2560 0.0000
v  -0.0002 0.2214 -0.0000
v  -0.1010 0.2560 -0.0000
v  0.0563 -0.1951 0.0351
v  0.0563 -0.1951 0.0000
v  0.0022 -0.1951 0.0351
v  -0.0461 -0.1951 -0.0000
v  -0.0461 -0.1951 0.0351
v  0.1036 -0.1951 0.0351
v  0.1036 -0.3417 0.0351
v  0.1036 -0.3417 0.0000
v  0.1036 -0.1951 0.0000
v  0.0022 -0.3417 0.0351
v  0.0563 -0.3417 0.0351
v  -0.0461 -0.3417 -0.0000
v  -0.0461 -0.3417 0.0351
v  0.0563 -0.4597 0.0351
v  0.0563 -0.4597 0.0000
v  0.0563 -0.3417 0.0000
v  0.0022 -0.4597 0.0351
v  -0.0461 -0.4597 -0.0000
v  -0.0461 -0.4597 0.0351
v  0.1150 -0.4597 0.0351
v  0.1150 -0.5705 0.0351
v  0.1150 -0.5705 0.0000
v  0.1150 -0.4597 0.0000
v  -0.1010 0.2942 -0.0000
v  0.1036 0.2942 0.0000
v  0.1718 0.1777 -0.0351
v  0.0563 0.1015 -0.0351
v  0.0001 0.5705 -0.0351
v  0.2202 0.4622 -0.0351
v  -0.0461 0.1015 -0.0351
v  -0.1718 0.1777 -0.0351
v  0.0563 -0.5705 -0.0351
v  0.0022 -0.5705 -0.0351
v  0.0001 0.1441 -0.0351
v  0.0001 0.1015 -0.0351
v  -0.2121 0.4622 -0.0351
v  -0.0325 -0.5705 -0.0351
v  0.2494 0.2725 -0.0351
v  -0.2494 0.2725 -0.0351
v  0.0563 -0.1951 -0.0351
v  0.0022 -0.1951 -0.0351
v  -0.0461 -0.1951 -0.0351
v  0.1036 -0.3417 -0.0351
v  0.1036 -0.1951 -0.0351
v  0.0563 -0.3417 -0.0351
v  0.0022 -0.3417 -0.0351
v  -0.0461 -0.3417 -0.0351
v  0.0563 -0.4597 -0.0351
v  0.0022 -0.4597 -0.0351
v  -0.0461 -0.4597 -0.0351
v  0.1150 -0.5705 -0.0351
v  0.1150 -0.4597 -0.0351
# 84 vertices

vn 0.5507 -0.8347 0.0000
vn 0.6631 -0.7486 0.0000
vn 0.4451 0.8955 0.0000
vn 0.0000 1.0000 -0.0000
vn 0.0000 0.9999 -0.0145
vn 0.4450 0.8952 -0.0257
vn -0.6438 -0.7652 -0.0000
vn -0.5184 -0.8551 -0.0000
vn 0.0000 -1.0000 -0.0000
vn -0.0000 0.0000 1.0000
vn -0.1577 0.2452 0.9566
vn -0.0002 0.2464 0.9692
vn -0.4548 0.8906 -0.0000
vn 0.1598 0.2433 0.9567
vn 0.9870 -0.1609 0.0000
vn 0.9867 0.1624 0.0000
vn 0.9851 0.1621 -0.0569
vn 0.9863 -0.1607 -0.0380
vn -0.1818 -0.1459 0.9724
vn -0.1832 -0.1437 0.9725
vn -0.0010 -0.2476 0.9689
vn 0.0005 -0.2476 0.9689
vn 0.1867 -0.1465 0.9714
vn 0.1865 -0.1467 0.9714
vn -0.9812 0.1930 -0.0000
vn -0.9901 -0.1402 -0.0000
vn -0.1674 0.2691 0.9485
vn 0.0004 0.3766 0.9264
vn 0.1662 0.2664 0.9494
vn 1.0000 0.0000 0.0000
vn -1.0000 0.0000 -0.0000
vn -0.9926 -0.1214 -0.0000
vn 0.2517 0.0177 0.9676
vn 0.2517 0.0181 0.9676
vn -0.2523 0.0224 0.9674
vn -0.2523 0.0229 0.9674
vn -0.0000 0.9999 0.0145
vn 0.4450 0.8952 0.0257
vn -0.0002 0.2464 -0.9692
vn -0.1577 0.2452 -0.9566
vn 0.0000 0.0000 -1.0000
vn 0.1598 0.2433 -0.9567
vn 0.9851 0.1621 0.0569
vn 0.9863 -0.1607 0.0380
vn -0.0010 -0.2476 -0.9689
vn -0.1832 -0.1437 -0.9725
vn -0.1818 -0.1459 -0.9724
vn 0.0005 -0.2476 -0.9689
vn 0.1867 -0.1465 -0.9714
vn 0.1865 -0.1467 -0.9714
vn 0.0004 0.3766 -0.9264
vn -0.1674 0.2691 -0.9485
vn 0.1662 0.2664 -0.9494
vn 0.2517 0.0181 -0.9676
vn 0.2517 0.0177 -0.9676
vn -0.2523 0.0229 -0.9674
vn -0.2523 0.0224 -0.9674
# 57 vertex normals

vt 0.1635 0.6778 0.0000
vt 0.1635 0.7327 0.0000
vt 0.0984 0.7327 0.0000
vt 0.0984 0.6778 0.0000
vt 0.1635 0.8322 0.0000
vt 0.1635 0.8866 0.0000
vt 0.0984 0.8866 0.0000
vt 0.0984 0.8322 0.0000
vt 0.1635 0.1033 0.0000
vt 0.1635 0.1320 0.0000
vt 0.0984 0.1320 0.0000
vt 0.0984 0.1033 0.0000
vt 0.1635 0.3115 0.0000
vt 0.1635 0.3574 0.0000
vt 0.0984 0.3574 0.0000
vt 0.0984 0.3115 0.0000
vt 0.7752 0.5332 0.0000
vt 0.8395 0.5719 0.0000
vt 0.7439 0.5548 0.0000
vt 0.7439 0.5332 0.0000
vt 0.1635 0.9400 0.0000
vt 0.0984 0.9400 0.0000
vt 0.7182 0.5332 0.0000
vt 0.6483 0.5719 0.0000
vt 0.1635 0.2761 0.0000
vt 0.0984 0.2761 0.0000
vt 0.1635 0.7778 0.0000
vt 0.0984 0.7778 0.0000
vt 0.8015 0.6761 0.0000
vt 0.8664 0.7163 0.0000
vt 0.7439 0.7714 0.0000
vt 0.7437 0.7003 0.0000
vt 0.6877 0.6761 0.0000
vt 0.6259 0.7163 0.0000
vt 0.1635 0.0422 0.0000
vt 0.1635 0.0739 0.0000
vt 0.0984 0.0739 0.0000
vt 0.0984 0.0422 0.0000
vt 0.8015 0.6116 0.0000
vt 0.7437 0.5941 0.0000
vt 0.6877 0.6116 0.0000
vt 0.0984 0.6433 0.0000
vt 0.1635 0.6433 0.0000
vt 0.7451 0.3825 0.0000
vt 0.7752 0.3825 0.0000
vt 0.1635 0.1673 0.0000
vt 0.0984 0.1673 0.0000
vt 0.7182 0.3825 0.0000
vt 0.0984 0.6082 0.0000
vt 0.0984 0.5783 0.0000
vt 0.1635 0.5783 0.0000
vt 0.1635 0.6082 0.0000
vt 0.7451 0.3081 0.0000
vt 0.7752 0.3081 0.0000
vt 0.1635 0.1968 0.0000
vt 0.0984 0.1968 0.0000
vt 0.7182 0.3081 0.0000
vt 0.0984 0.5340 0.0000
vt 0.0984 0.4929 0.0000
vt 0.1635 0.4929 0.0000
vt 0.1635 0.5340 0.0000
vt 0.7451 0.2482 0.0000
vt 0.7752 0.2482 0.0000
vt 0.1635 0.2361 0.0000
vt 0.0984 0.2361 0.0000
vt 0.7182 0.2482 0.0000
vt 0.0984 0.4414 0.0000
vt 0.0984 0.3986 0.0000
vt 0.1635 0.3986 0.0000
vt 0.1635 0.4414 0.0000
vt 0.7451 0.1919 0.0000
vt 0.7752 0.1919 0.0000
vt 0.7258 0.1919 0.0000
vt 0.8015 0.3081 0.0000
vt 0.8015 0.3825 0.0000
vt 0.8079 0.1919 0.0000
vt 0.8079 0.2482 0.0000
vt 0.6877 0.6311 0.0000
vt 0.6051 0.6200 0.0000
vt 0.8826 0.6200 0.0000
vt 0.8015 0.6311 0.0000
vt 0.2287 0.7327 0.0000
vt 0.2287 0.6778 0.0000
vt 0.2287 0.8866 0.0000
vt 0.2287 0.8322 0.0000
vt 0.2287 0.1320 0.0000
vt 0.2287 0.1033 0.0000
vt 0.2287 0.3574 0.0000
vt 0.2287 0.3115 0.0000
vt 0.4568 0.5570 0.0000
vt 0.3613 0.5740 0.0000
vt 0.4255 0.5353 0.0000
vt 0.4568 0.5353 0.0000
vt 0.2287 0.9400 0.0000
vt 0.4825 0.5353 0.0000
vt 0.5525 0.5740 0.0000
vt 0.2287 0.2761 0.0000
vt 0.2287 0.7778 0.0000
vt 0.4568 0.7735 0.0000
vt 0.3343 0.7185 0.0000
vt 0.3992 0.6783 0.0000
vt 0.4570 0.7024 0.0000
vt 0.5130 0.6783 0.0000
vt 0.5749 0.7185 0.0000
vt 0.2287 0.0739 0.0000
vt 0.2287 0.0422 0.0000
vt 0.4570 0.5962 0.0000
vt 0.3992 0.6138 0.0000
vt 0.5130 0.6138 0.0000
vt 0.2287 0.6433 0.0000
vt 0.4255 0.3847 0.0000
vt 0.4556 0.3847 0.0000
vt 0.2287 0.1673 0.0000
vt 0.4825 0.3847 0.0000
vt 0.2287 0.5783 0.0000
vt 0.2287 0.6082 0.0000
vt 0.4255 0.3102 0.0000
vt 0.4556 0.3102 0.0000
vt 0.2287 0.1968 0.0000
vt 0.4825 0.3102 0.0000
vt 0.2287 0.4929 0.0000
vt 0.2287 0.5340 0.0000
vt 0.4255 0.2503 0.0000
vt 0.4556 0.2503 0.0000
vt 0.2287 0.2361 0.0000
vt 0.4825 0.2503 0.0000
vt 0.2287 0.3986 0.0000
vt 0.2287 0.4414 0.0000
vt 0.4255 0.1941 0.0000
vt 0.4556 0.1941 0.0000
vt 0.4750 0.1941 0.0000
vt 0.3992 0.3847 0.0000
vt 0.3992 0.3102 0.0000
vt 0.3928 0.2503 0.0000
vt 0.3928 0.1941 0.0000
vt 0.5956 0.6222 0.0000
vt 0.5130 0.6332 0.0000
vt 0.3992 0.6332 0.0000
vt 0.3181 0.6222 0.0000
# 139 texture coords

g pCube1
usemtl key
f 1/1/1 2/2/2 3/3/2 
f 3/3/2 4/4/1 1/1/1 
f 5/5/3 6/6/4 7/7/5 
f 7/7/5 8/8/6 5/5/3 
f 9/9/7 10/10/8 11/11/8 
f 11/11/8 12/12/7 9/9/7 
f 13/13/9 14/14/9 15/15/9 
f 15/15/9 16/16/9 13/13/9 
f 4/17/10 3/18/11 17/19/12 
f 17/19/12 18/20/10 4/17/10 
f 6/6/4 19/21/13 20/22/13 
f 20/22/13 7/7/5 6/6/4 
f 11/23/10 18/20/10 17/19/12 
f 17/19/12 12/24/14 11/23/10 
f 21/25/9 13/13/9 16/16/9 
f 16/16/9 22/26/9 21/25/9 
f 23/27/15 5/5/16 8/8/17 
f 8/8/17 24/28/18 23/27/15 
f 25/29/19 8/30/20 7/31/21 
f 7/31/21 26/32/22 25/29/19 
f 27/33/23 26/32/22 7/31/21 
f 7/31/21 20/34/24 27/33/23 
f 19/35/25 28/36/26 29/37/26 
f 29/37/26 20/38/25 19/35/25 
f 2/2/2 23/27/15 24/28/18 
f 24/28/18 3/3/2 2/2/2 
f 17/19/12 3/18/11 30/39/27 
f 30/39/27 31/40/28 17/19/12 
f 17/19/12 31/40/28 32/41/29 
f 32/41/29 12/24/14 17/19/12 
f 28/36/26 9/9/7 12/12/7 
f 12/12/7 29/37/26 28/36/26 
f 4/4/30 33/42/30 34/43/30 
f 34/43/30 1/1/30 4/4/30 
f 18/20/10 35/44/10 33/45/10 
f 33/45/10 4/17/10 18/20/10 
f 10/10/31 36/46/31 37/47/31 
f 37/47/31 11/11/31 10/10/31 
f 11/23/10 37/48/10 35/44/10 
f 35/44/10 18/20/10 11/23/10 
f 38/49/30 39/50/30 40/51/30 
f 40/51/30 41/52/30 38/49/30 
f 35/44/10 42/53/10 43/54/10 
f 43/54/10 33/45/10 35/44/10 
f 36/46/31 44/55/31 45/56/31 
f 45/56/31 37/47/31 36/46/31 
f 37/48/10 45/57/10 42/53/10 
f 42/53/10 35/44/10 37/48/10 
f 43/58/30 46/59/30 47/60/30 
f 47/60/30 48/61/30 43/58/30 
f 42/53/10 49/62/10 46/63/10 
f 46/63/10 43/54/10 42/53/10 
f 44/55/31 50/64/31 51/65/31 
f 51/65/31 45/56/31 44/55/31 
f 45/57/10 51/66/10 49/62/10 
f 49/62/10 42/53/10 45/57/10 
f 52/67/30 53/68/30 54/69/30 
f 54/69/30 55/70/30 52/67/30 
f 49/62/10 16/71/10 15/72/10 
f 15/72/10 46/63/10 49/62/10 
f 50/64/32 21/25/32 22/26/32 
f 22/26/32 51/65/32 50/64/32 
f 49/62/10 51/66/10 22/73/10 
f 22/73/10 16/71/10 49/62/10 
f 33/42/4 38/49/4 41/52/4 
f 41/52/4 34/43/4 33/42/4 
f 43/54/10 39/74/10 38/75/10 
f 38/75/10 33/45/10 43/54/10 
f 48/61/9 40/51/9 39/50/9 
f 39/50/9 43/58/9 48/61/9 
f 46/59/4 52/67/4 55/70/4 
f 55/70/4 47/60/4 46/59/4 
f 15/72/10 53/76/10 52/77/10 
f 52/77/10 46/63/10 15/72/10 
f 14/14/9 54/69/9 53/68/9 
f 53/68/9 15/15/9 14/14/9 
f 12/24/14 32/41/29 56/78/33 
f 56/78/33 29/79/34 12/24/14 
f 3/18/11 24/80/35 57/81/36 
f 57/81/36 30/39/27 3/18/11 
f 25/29/19 57/81/36 24/80/35 
f 24/80/35 8/30/20 25/29/19 
f 29/79/34 56/78/33 27/33/23 
f 27/33/23 20/34/24 29/79/34 
f 58/82/2 2/2/2 1/1/1 
f 1/1/1 59/83/1 58/82/2 
f 60/84/37 6/6/4 5/5/3 
f 5/5/3 61/85/38 60/84/37 
f 62/86/8 10/10/8 9/9/7 
f 9/9/7 63/87/7 62/86/8 
f 64/88/9 14/14/9 13/13/9 
f 13/13/9 65/89/9 64/88/9 
f 66/90/39 58/91/40 59/92/41 
f 59/92/41 67/93/41 66/90/39 
f 68/94/13 19/21/13 6/6/4 
f 6/6/4 60/84/37 68/94/13 
f 62/95/41 63/96/42 66/90/39 
f 66/90/39 67/93/41 62/95/41 
f 65/89/9 13/13/9 21/25/9 
f 21/25/9 69/97/9 65/89/9 
f 61/85/43 5/5/16 23/27/15 
f 23/27/15 70/98/44 61/85/43 
f 60/99/45 61/100/46 25/101/47 
f 25/101/47 26/102/48 60/99/45 
f 60/99/45 26/102/48 27/103/49 
f 27/103/49 68/104/50 60/99/45 
f 71/105/26 28/36/26 19/35/25 
f 19/35/25 68/106/25 71/105/26 
f 70/98/44 23/27/15 2/2/2 
f 2/2/2 58/82/2 70/98/44 
f 66/90/39 31/107/51 30/108/52 
f 30/108/52 58/91/40 66/90/39 
f 32/109/53 31/107/51 66/90/39 
f 66/90/39 63/96/42 32/109/53 
f 63/87/7 9/9/7 28/36/26 
f 28/36/26 71/105/26 63/87/7 
f 34/43/30 72/110/30 59/83/30 
f 59/83/30 1/1/30 34/43/30 
f 72/111/41 73/112/41 67/93/41 
f 67/93/41 59/92/41 72/111/41 
f 74/113/31 36/46/31 10/10/31 
f 10/10/31 62/86/31 74/113/31 
f 73/112/41 74/114/41 62/95/41 
f 62/95/41 67/93/41 73/112/41 
f 40/51/30 75/115/30 76/116/30 
f 76/116/30 41/52/30 40/51/30 
f 77/117/41 78/118/41 73/112/41 
f 73/112/41 72/111/41 77/117/41 
f 79/119/31 44/55/31 36/46/31 
f 36/46/31 74/113/31 79/119/31 
f 78/118/41 79/120/41 74/114/41 
f 74/114/41 73/112/41 78/118/41 
f 47/60/30 80/121/30 77/122/30 
f 77/122/30 48/61/30 47/60/30 
f 80/123/41 81/124/41 78/118/41 
f 78/118/41 77/117/41 80/123/41 
f 82/125/31 50/64/31 44/55/31 
f 44/55/31 79/119/31 82/125/31 
f 81/124/41 82/126/41 79/120/41 
f 79/120/41 78/118/41 81/124/41 
f 54/69/30 83/127/30 84/128/30 
f 84/128/30 55/70/30 54/69/30 
f 64/129/41 65/130/41 81/124/41 
f 81/124/41 80/123/41 64/129/41 
f 69/97/32 21/25/32 50/64/32 
f 50/64/32 82/125/32 69/97/32 
f 81/124/41 65/130/41 69/131/41 
f 69/131/41 82/126/41 81/124/41 
f 41/52/4 76/116/4 72/110/4 
f 72/110/4 34/43/4 41/52/4 
f 76/132/41 75/133/41 77/117/41 
f 77/117/41 72/111/41 76/132/41 
f 75/115/9 40/51/9 48/61/9 
f 48/61/9 77/122/9 75/115/9 
f 55/70/4 84/128/4 80/121/4 
f 80/121/4 47/60/4 55/70/4 
f 84/134/41 83/135/41 64/129/41 
f 64/129/41 80/123/41 84/134/41 
f 83/127/9 54/69/9 14/14/9 
f 14/14/9 64/88/9 83/127/9 
f 63/96/42 71/136/54 56/137/55 
f 56/137/55 32/109/53 63/96/42 
f 57/138/56 70/139/57 58/91/40 
f 58/91/40 30/108/52 57/138/56 
f 70/139/57 57/138/56 25/101/47 
f 25/101/47 61/100/46 70/139/57 
f 71/136/54 68/104/50 27/103/49 
f 27/103/49 56/137/55 71/136/54 
# 168 faces

